<svg width="86" height="91" viewBox="0 0 86 91" fill="none" xmlns="http://www.w3.org/2000/svg">
<g clip-path="url(#clip0_502_3)">
<path d="M60.254 6.22844C58.4323 8.05017 56.7633 10.0246 55.2797 12.13L54.8106 11.9772C52.1053 11.0936 49.3018 10.5482 46.4765 10.3628C45.6257 10.2973 42.4513 10.2973 41.415 10.3628C38.2842 10.57 35.8844 11.0391 33.1572 11.9881C33.0481 12.0318 32.95 12.0645 32.8518 12.0972C31.3137 10.0028 29.601 8.03926 27.7139 6.23935C36.7679 1.60323 47.3601 1.04689 56.8396 4.70125C57.8541 5.08305 58.8468 5.5303 59.8176 6.01027L60.254 6.22844Z" fill="#F00500"/>
<path d="M77.1403 47.6045C75.7659 51.5206 73.7041 55.1532 71.0316 58.3166C69.5807 60.0184 67.9772 61.5783 66.2536 62.9964C62.2175 66.2471 57.505 68.5707 52.4762 69.7924C46.9128 71.1342 41.1095 71.1342 35.5461 69.7924C30.5064 68.5707 25.8048 66.2471 21.7687 62.9964C20.0451 61.5783 18.4416 60.0184 16.9907 58.3166C9.30022 49.2298 6.9658 36.7505 10.882 25.5038C11.6237 23.4203 12.551 21.4131 13.6636 19.5041C14.1763 18.6314 14.809 17.6497 15.1145 17.2461C16.1617 21.7513 17.4489 25.7111 17.9289 27.1401C17.8961 27.2164 17.8525 27.3037 17.8089 27.3801C15.2672 32.5289 13.8927 37.4923 13.5655 42.772C13.5655 42.8374 13.5545 42.9138 13.5545 42.9793C13.4673 44.561 13.5109 45.3137 13.7727 46.3064C14.5909 49.4153 17.1107 52.8406 21.0596 56.2004C27.5284 61.6983 36.2988 65.669 42.9421 66.1271C49.869 66.5962 60.0903 62.5492 66.8972 56.6367C67.9663 55.6877 68.9698 54.6841 69.908 53.6151C70.5843 52.8297 71.5879 51.477 71.5115 51.477C71.4897 51.477 71.5115 51.4552 71.5552 51.4334C71.5879 51.4115 71.6206 51.3788 71.5988 51.357C71.5879 51.3461 71.6097 51.3134 71.6424 51.3025C71.6752 51.2916 71.697 51.2697 71.6861 51.2479C71.6752 51.2261 71.6861 51.2043 71.7297 51.1934C71.7624 51.1825 71.7733 51.1497 71.7624 51.1279C71.7515 51.1061 71.7624 51.0843 71.7843 51.0843C71.8061 51.0843 71.8279 51.0516 71.8279 51.0297C71.8279 51.0079 71.8497 50.9752 71.8715 50.9752C71.8933 50.9752 71.9151 50.9534 71.9151 50.9316C71.9479 50.8443 72.0024 50.757 72.057 50.6807C72.2206 50.4298 72.8751 49.2626 72.9624 49.0662C73.5841 47.659 73.9769 46.4045 74.1623 45.1501C74.2496 44.5501 74.3041 43.4483 74.2605 43.1865C74.2496 43.1429 74.2496 43.0665 74.2387 42.9465C74.2169 42.7284 74.2059 42.4011 74.1841 42.0739C74.1623 41.583 74.1187 40.8957 74.0859 40.5576C73.6169 35.6051 72.3515 31.558 69.9516 27.271C69.8534 27.1074 69.7662 26.9437 69.7116 26.8128C69.6898 26.7801 69.6789 26.7474 69.668 26.7256C70.0062 25.7111 71.3915 21.4677 72.4933 16.6134L72.5151 16.6352L72.6787 16.8533C72.9624 17.2351 73.7151 18.3696 74.0532 18.9151C75.5913 21.424 76.7913 24.1184 77.6421 26.9328C79.6166 33.707 79.4529 40.9285 77.1403 47.6045Z" fill="#F00500"/>
<path d="M62.9811 34.5688C62.9484 34.7433 62.4357 35.2669 61.923 35.6487C60.4176 36.7505 57.7232 37.7759 54.9852 38.2668C53.4253 38.5504 51.8653 38.594 51.3963 38.365C51.0908 38.2122 51.0472 38.0922 51.1563 37.6995C51.3854 36.8814 52.1271 35.9869 53.2834 35.1469C53.8725 34.7215 56.2615 33.2707 57.3741 32.6598C59.2068 31.6562 60.6903 31.0562 61.6939 30.9144C62.0103 30.8708 62.3921 30.8599 62.5121 30.9144C62.7084 30.9908 62.9266 31.5689 63.0138 32.2671C63.0575 32.638 63.0357 34.2743 62.9811 34.5688Z" fill="black"/>
<path d="M37.2805 38.1795C37.2151 38.3104 36.8878 38.4522 36.5169 38.5068C36.146 38.5613 35.0116 38.5286 34.368 38.4522C32.0554 38.1468 29.6009 37.4377 27.8119 36.565C26.8084 36.0742 26.0884 35.5833 25.5539 35.0488L25.2484 34.7324L25.2157 34.3179C25.1612 33.5979 25.1721 32.4634 25.2593 32.0598C25.3139 31.7217 25.4339 31.3944 25.5975 31.0999C25.6848 30.9908 25.6848 30.9908 26.0775 30.9908C26.5575 30.9908 26.9611 31.0671 27.6156 31.2744C28.9573 31.6889 30.9536 32.6925 33.3862 34.1543C35.3934 35.3542 36.1461 35.9433 36.7242 36.7505C37.1169 37.2523 37.3787 37.9613 37.2805 38.1795Z" fill="black"/>
<path d="M52.7271 53.3642C52.7271 53.3969 52.5962 53.9205 52.4326 54.5423C52.269 55.1641 52.1381 55.6659 52.1381 55.6877C52.0181 55.6986 51.909 55.7095 51.789 55.6986H51.4399L50.9599 56.8331C50.6981 57.4549 50.4581 58.033 50.4254 58.1203L50.36 58.273L50.1309 57.9021L49.9018 57.5312V54.5096L49.8145 54.5314C49.6291 54.575 48.3092 54.7496 47.731 54.8041C45.342 55.0441 42.9422 54.9895 40.5641 54.6514C40.1823 54.5968 39.855 54.5532 39.8441 54.5641C39.8332 54.575 39.8441 55.2732 39.866 56.1349L39.8987 57.6839L39.7132 57.9676C39.6151 58.1203 39.5169 58.2512 39.5169 58.2621C39.4842 58.2948 39.3751 58.1203 39.1242 57.6185C38.8515 57.0949 38.6551 56.5385 38.5133 55.9604L38.4369 55.644L38.0988 55.6659L37.7606 55.6986L37.6733 55.295C37.6297 55.0768 37.5752 54.7386 37.5533 54.5532L37.5206 54.2041L37.237 53.9532C37.0734 53.8114 36.9098 53.6696 36.877 53.6478C36.8225 53.6042 36.8007 53.5278 36.8007 53.4623V53.3314L38.1642 53.3424L39.5278 53.3533L39.5714 53.4951L39.6151 53.6369L40.0841 53.6587C40.3459 53.6696 41.175 53.6914 41.9168 53.7132L43.2803 53.746L43.6294 53.2005L43.9894 52.6551H44.4475L44.4366 51.5206L44.4257 50.3861L43.8258 50.1243C41.8949 49.2735 40.7605 48.3026 40.335 47.1245C40.2478 46.8845 40.2478 46.7972 40.2259 45.7064C40.215 44.6264 40.215 44.5283 40.2914 44.2883C40.4441 43.7429 40.8695 43.3174 41.415 43.1756C41.6004 43.1211 42.0913 43.1211 44.6657 43.1211L47.6983 43.132L48.0364 43.2956C48.4401 43.492 48.6255 43.6338 48.8546 43.9392C49.1164 44.2883 49.1928 44.561 49.1928 45.2264C49.1928 46.1754 49.1273 46.9936 49.0291 47.3208C48.8873 47.7681 48.6691 48.1935 48.3964 48.5753C47.851 49.2735 46.8583 49.9716 45.9529 50.288L45.6911 50.3861L45.702 51.5315L45.7129 52.6769L45.9529 52.6987L46.1929 52.7206L46.5202 53.2114L46.8365 53.7023H48.2982C49.1055 53.7023 49.8145 53.7132 49.88 53.7241C49.9891 53.746 50.0109 53.7351 50.12 53.5496L50.2509 53.3533H51.5054C52.4435 53.3096 52.7271 53.3314 52.7271 53.3642Z" fill="black"/>
<path d="M46.9674 56.4949C46.7601 56.6149 46.6183 56.6695 46.5856 56.6476C46.5529 56.6367 46.4002 56.5058 46.2365 56.3858L45.942 56.1459L45.6366 56.4731C44.9711 57.1931 44.9493 57.2258 44.753 57.2367C44.4475 57.2694 44.3821 57.2149 44.0112 56.6586C43.8149 56.3749 43.6621 56.1349 43.6621 56.1349C43.6621 56.1349 43.5203 56.1131 43.3567 56.1022L43.0512 56.0695L42.9094 56.364L42.7676 56.6586L42.5167 56.5822C42.3204 56.5167 42.124 56.4404 41.9386 56.3531L41.6113 56.1895V55.5677L44.513 55.5786L47.4147 55.5895L47.4256 55.884C47.4365 56.2331 47.4474 56.2222 46.9674 56.4949Z" fill="black"/>
<path d="M74.2386 43.1865C74.2277 43.1429 74.2277 43.0665 74.2168 42.9465C71.5988 42.6629 64.1264 42.4884 57.1886 48.2153C57.1886 48.2153 54.9524 37.9613 44.4802 37.9613C34.008 37.9613 30.1246 48.2153 30.1246 48.2153C24.2558 41.8993 16.4016 42.3575 13.5654 42.772C13.5654 42.8374 13.5545 42.9138 13.5545 42.9793C13.4672 44.561 13.5109 45.3137 13.7727 46.3064C14.5908 49.4153 17.1107 52.8406 21.0596 56.2004C27.5283 61.6983 36.2988 65.669 42.9421 66.1271C49.869 66.5962 60.0903 62.5491 66.8972 56.6367C67.9662 55.6877 68.9698 54.6841 69.9079 53.6151C70.5843 52.8297 71.5879 51.477 71.5115 51.477C71.4897 51.477 71.5115 51.4552 71.5551 51.4334C71.5879 51.4115 71.6206 51.3788 71.5988 51.357C71.5879 51.3461 71.6097 51.3134 71.6424 51.3025C71.6751 51.2915 71.697 51.2697 71.686 51.2479C71.6751 51.2261 71.686 51.2043 71.7297 51.1934C71.7624 51.1825 71.7733 51.1497 71.7624 51.1279C71.7515 51.1061 71.7624 51.0843 71.7842 51.0843C71.806 51.0843 71.8279 51.0516 71.8279 51.0297C71.8279 51.0079 71.8497 50.9752 71.8715 50.9752C71.8933 50.9752 71.9151 50.9534 71.9151 50.9316C71.9478 50.8443 72.0024 50.757 72.0569 50.6807C72.2206 50.4298 72.8751 49.2626 72.9623 49.0662C73.5841 47.659 73.9768 46.4045 74.1623 45.1501C74.2277 44.5501 74.2823 43.4483 74.2386 43.1865ZM46.9673 56.4949C46.7601 56.6149 46.6183 56.6695 46.5855 56.6476C46.5528 56.6367 46.4001 56.5058 46.2364 56.3858L45.9419 56.1458L45.6365 56.4731C44.9711 57.1931 44.9492 57.2258 44.7529 57.2367C44.4475 57.2694 44.382 57.2149 44.0111 56.6585C43.8148 56.3749 43.662 56.1349 43.662 56.1349C43.662 56.1349 43.5202 56.1131 43.3566 56.1022L43.0512 56.0695L42.9093 56.364L42.7675 56.6585L42.5166 56.5822C42.3203 56.5167 42.1239 56.4404 41.9385 56.3531L41.6112 56.1895V55.5677L44.5129 55.5786L47.4146 55.5895L47.4255 55.884C47.4364 56.2331 47.4473 56.2222 46.9673 56.4949ZM52.4216 54.5314C52.258 55.1532 52.1271 55.655 52.1271 55.6768C52.0071 55.6877 51.898 55.6986 51.778 55.6877H51.4289L50.9598 56.8331C50.698 57.4549 50.458 58.033 50.4253 58.1203L50.3599 58.273L50.1308 57.9021L49.9017 57.5312V54.5096L49.8144 54.5314C49.629 54.575 48.3091 54.7496 47.7309 54.8041C45.342 55.0441 42.9421 54.9895 40.564 54.6514C40.1822 54.5968 39.855 54.5532 39.8441 54.5641C39.8331 54.575 39.8441 55.2732 39.8659 56.1349L39.8986 57.6839L39.7132 57.9676C39.615 58.1203 39.5168 58.2512 39.5168 58.2621C39.4841 58.2948 39.375 58.1203 39.1241 57.6185C38.8514 57.0949 38.655 56.5386 38.5132 55.9604L38.4369 55.644L38.0987 55.6659L37.7605 55.6986L37.6733 55.295C37.6296 55.0768 37.5751 54.7386 37.5533 54.5532L37.5206 54.2041L37.2369 53.9532C37.0733 53.8114 36.9097 53.6696 36.8769 53.6478C36.8224 53.6042 36.8006 53.5278 36.8006 53.4623V53.3314L38.1641 53.3424L39.5277 53.3533L39.5713 53.4951L39.615 53.6369L40.0841 53.6587C40.3459 53.6696 41.1749 53.6914 41.9167 53.7132L43.2802 53.746L43.6293 53.2005L43.9893 52.6551H44.4475L44.4365 51.5206L44.4256 50.3861L43.8257 50.1243C41.8949 49.2735 40.7604 48.3026 40.3349 47.1245C40.2477 46.8845 40.2477 46.7972 40.2259 45.7064C40.2149 44.6264 40.2149 44.5283 40.2913 44.2883C40.444 43.7429 40.8695 43.3174 41.4149 43.1756C41.6003 43.1211 42.0912 43.1211 44.6656 43.1211L47.6982 43.132L48.0364 43.2956C48.44 43.492 48.6254 43.6338 48.8545 43.9392C49.1163 44.2883 49.1927 44.561 49.1927 45.2264C49.1927 46.1755 49.1272 46.9936 49.029 47.3208C48.8872 47.7681 48.6691 48.1935 48.3963 48.5753C47.8509 49.2735 46.8582 49.9716 45.9528 50.288L45.691 50.3861L45.7019 51.5315L45.7128 52.6769L45.9528 52.6987L46.1928 52.7206L46.5201 53.2114L46.8364 53.7023H48.2982C49.1054 53.7023 49.8144 53.7132 49.8799 53.7242C49.989 53.746 50.0108 53.7351 50.1199 53.5496L50.2508 53.3533H51.5053C52.4761 53.3533 52.7598 53.3642 52.7598 53.3969C52.727 53.386 52.5852 53.9205 52.4216 54.5314Z" fill="white"/>
<path d="M74.1513 42.0738C74.1295 41.583 74.0859 40.8957 74.0532 40.5576C73.5841 35.6051 72.3187 31.558 69.9188 27.271C69.8207 27.1074 69.7334 26.9437 69.6788 26.8128C69.657 26.7801 69.6461 26.7474 69.6352 26.7256C69.9734 25.7111 71.3588 21.4676 72.4605 16.6134C73.955 10.0246 74.904 2.32319 72.0024 0.0105812C72.0024 0.0105812 66.9844 -0.360309 60.2648 6.22844C58.4431 8.05016 56.7741 10.0246 55.2905 12.13L54.8214 11.9772C52.1161 11.0936 49.3126 10.5482 46.4873 10.3628C45.6365 10.2973 42.4621 10.2973 41.4258 10.3628C38.295 10.57 35.8951 11.0391 33.168 11.9881C33.0589 12.0318 32.9607 12.0645 32.8626 12.0972C31.3245 10.0028 29.6118 8.03926 27.7247 6.23935C20.7323 -0.382125 15.5289 -0.000328017 15.5289 -0.000328017C12.4527 2.38864 13.4999 10.4391 15.0926 17.246C16.1398 21.7513 17.427 25.7111 17.907 27.1401C17.8743 27.2164 17.8306 27.3037 17.787 27.3801C15.2453 32.5289 13.8708 37.4923 13.5436 42.772C16.3907 42.3575 24.2339 41.8884 30.1136 48.2153C30.1136 48.2153 33.9971 37.9613 44.4692 37.9613C54.9414 37.9613 57.1777 48.2153 57.1777 48.2153C64.1155 42.4884 71.5878 42.6738 74.2059 42.9465C74.195 42.7284 74.1732 42.4011 74.1513 42.0738ZM19.9687 23.0276C19.9687 23.0276 15.8889 12.8281 16.9361 7.00295C17.1107 6.02118 17.4379 5.1594 17.9506 4.50489C17.9506 4.50489 22.5758 4.96305 30.0373 13.2535C30.0373 13.2535 28.6192 13.9408 26.7211 15.4025C26.7211 15.4025 26.7102 15.4134 26.6993 15.4134C24.6375 16.9952 21.9977 19.5041 19.9687 23.0276ZM37.2805 38.1795C37.2151 38.3104 36.8878 38.4522 36.5169 38.5068C36.146 38.5613 35.0116 38.5286 34.368 38.4522C32.0553 38.1468 29.6009 37.4377 27.8119 36.565C26.8083 36.0742 26.0884 35.5833 25.5539 35.0488L25.2484 34.7324L25.2157 34.3179C25.1612 33.5979 25.1721 32.4634 25.2593 32.0598C25.3139 31.7217 25.4339 31.3944 25.5975 31.0999C25.6848 30.9908 25.6848 30.9908 26.0775 30.9908C26.5575 30.9908 26.9611 31.0671 27.6156 31.2744C28.9573 31.6889 30.9536 32.6925 33.3862 34.1543C35.3934 35.3542 36.146 35.9433 36.7242 36.7505C37.1169 37.2523 37.3787 37.9613 37.2805 38.1795ZM62.981 34.5688C62.9483 34.7433 62.4356 35.2669 61.9229 35.6487C60.4175 36.7505 57.7231 37.7759 54.9851 38.2668C53.4251 38.5504 51.8652 38.594 51.3962 38.365C51.0907 38.2122 51.0471 38.0922 51.1562 37.6995C51.3853 36.8814 52.127 35.9869 53.2833 35.1469C53.8724 34.7215 56.2614 33.2707 57.374 32.6598C59.2067 31.6562 60.6902 31.0562 61.6938 30.9144C62.0102 30.8708 62.392 30.8599 62.5119 30.9144C62.7083 30.9908 62.9265 31.5689 63.0137 32.2671C63.0574 32.638 63.0355 34.2743 62.981 34.5688ZM61.1702 15.4025L61.1484 15.3916C59.3157 13.9299 57.9413 13.2426 57.9413 13.2426C65.1518 4.95214 69.6134 4.49399 69.6134 4.49399C70.1043 5.15941 70.4206 6.01027 70.5952 6.99204C71.6097 12.8172 67.6717 23.0276 67.6717 23.0276C66.0245 20.0932 63.8101 17.4969 61.1702 15.4025Z" fill="#FFA409"/>
<path d="M70.6061 6.99204C69.7552 6.88295 65.73 6.86114 61.1702 15.4025L61.1484 15.3916C59.3158 13.9299 57.9413 13.2426 57.9413 13.2426C65.1518 4.95214 69.6134 4.49399 69.6134 4.49399C70.1152 5.15941 70.4315 6.01027 70.6061 6.99204Z" fill="#FF9300"/>
<path d="M67.6826 23.0276C66.0245 20.0823 63.8209 17.4969 61.1702 15.4025C65.7299 6.86113 69.7443 6.88295 70.606 6.99204C71.6205 12.8281 67.6826 23.0276 67.6826 23.0276Z" fill="#FF8300"/>
<path d="M70.7697 7.02477C70.7152 7.01386 70.6606 7.00295 70.6061 6.99204L70.7697 7.02477Z" fill="#FF8300"/>
<path d="M30.0372 13.2426C30.0372 13.2426 28.6191 13.9299 26.721 15.3916C26.721 15.3916 26.7101 15.4025 26.6992 15.4025C21.9758 6.85023 17.8197 6.88295 16.9252 6.99204C17.0997 6.01027 17.427 5.1485 17.9397 4.49399C17.9506 4.49399 22.5758 4.95214 30.0372 13.2426Z" fill="#FF9300"/>
<path d="M26.7102 15.4025C24.6376 16.9952 21.9977 19.4932 19.9688 23.0276C19.9688 23.0276 15.889 12.8281 16.9362 6.99204C17.8198 6.88295 21.9868 6.86113 26.7102 15.4025Z" fill="#FF8300"/>
<path d="M16.9361 6.99204C16.8816 7.00295 16.8161 7.01386 16.7616 7.02477L16.9361 6.99204Z" fill="#FF8300"/>
<path d="M56.6432 28.6891C56.6432 28.6891 53.1524 28.9073 53.5888 26.1801C54.0251 23.453 56.7522 23.1257 57.5158 23.2348C58.2794 23.3439 61.3338 24.4348 60.7884 26.7256C60.243 29.0163 59.4794 28.58 59.043 28.6891C58.6067 28.7982 56.6432 28.6891 56.6432 28.6891Z" fill="white"/>
<path d="M30.8991 28.6891C30.8991 28.6891 27.4084 28.9073 27.8448 26.1801C28.2811 23.453 31.0082 23.1257 31.7718 23.2348C32.5354 23.3439 35.5898 24.4348 35.0444 26.7256C34.499 29.0163 33.7354 28.58 33.299 28.6891C32.8627 28.7982 30.8991 28.6891 30.8991 28.6891Z" fill="white"/>
</g>
<path d="M5.112 87V82.424L5.704 83.992L0.776 75.8H3.528L7.304 82.088H5.72L9.512 75.8H12.056L7.128 83.992L7.704 82.424V87H5.112ZM16.1074 87.128C15.19 87.128 14.374 86.936 13.6594 86.552C12.9554 86.168 12.3954 85.6453 11.9794 84.984C11.574 84.312 11.3714 83.5493 11.3714 82.696C11.3714 81.832 11.574 81.0693 11.9794 80.408C12.3954 79.736 12.9554 79.2133 13.6594 78.84C14.374 78.456 15.19 78.264 16.1074 78.264C17.014 78.264 17.8247 78.456 18.5394 78.84C19.254 79.2133 19.814 79.7307 20.2194 80.392C20.6247 81.0533 20.8274 81.8213 20.8274 82.696C20.8274 83.5493 20.6247 84.312 20.2194 84.984C19.814 85.6453 19.254 86.168 18.5394 86.552C17.8247 86.936 17.014 87.128 16.1074 87.128ZM16.1074 85.08C16.5234 85.08 16.8967 84.984 17.2274 84.792C17.558 84.6 17.8194 84.328 18.0114 83.976C18.2034 83.6133 18.2994 83.1867 18.2994 82.696C18.2994 82.1947 18.2034 81.768 18.0114 81.416C17.8194 81.064 17.558 80.792 17.2274 80.6C16.8967 80.408 16.5234 80.312 16.1074 80.312C15.6914 80.312 15.318 80.408 14.9874 80.6C14.6567 80.792 14.39 81.064 14.1874 81.416C13.9954 81.768 13.8994 82.1947 13.8994 82.696C13.8994 83.1867 13.9954 83.6133 14.1874 83.976C14.39 84.328 14.6567 84.6 14.9874 84.792C15.318 84.984 15.6914 85.08 16.1074 85.08ZM26.1278 87.128C25.4131 87.128 24.7731 86.9893 24.2078 86.712C23.6531 86.4347 23.2211 86.0133 22.9118 85.448C22.6024 84.872 22.4478 84.1413 22.4478 83.256V78.392H24.9438V82.888C24.9438 83.6027 25.0931 84.1307 25.3918 84.472C25.7011 84.8027 26.1331 84.968 26.6878 84.968C27.0718 84.968 27.4131 84.888 27.7118 84.728C28.0104 84.5573 28.2451 84.3013 28.4158 83.96C28.5864 83.608 28.6718 83.1707 28.6718 82.648V78.392H31.1678V87H28.7998V84.632L29.2318 85.32C28.9438 85.9173 28.5171 86.3707 27.9518 86.68C27.3971 86.9787 26.7891 87.128 26.1278 87.128ZM33.4801 87V78.392H35.8641V80.824L35.5281 80.12C35.7841 79.512 36.1948 79.0533 36.7601 78.744C37.3255 78.424 38.0135 78.264 38.8241 78.264V80.568C38.7175 80.5573 38.6215 80.552 38.5361 80.552C38.4508 80.5413 38.3601 80.536 38.2641 80.536C37.5815 80.536 37.0268 80.7333 36.6001 81.128C36.1841 81.512 35.9761 82.1147 35.9761 82.936V87H33.4801ZM45.078 87V75.8H47.67V84.888H53.286V87H45.078ZM58.6074 87.128C57.69 87.128 56.874 86.936 56.1594 86.552C55.4554 86.168 54.8954 85.6453 54.4794 84.984C54.074 84.312 53.8714 83.5493 53.8714 82.696C53.8714 81.832 54.074 81.0693 54.4794 80.408C54.8954 79.736 55.4554 79.2133 56.1594 78.84C56.874 78.456 57.69 78.264 58.6074 78.264C59.514 78.264 60.3247 78.456 61.0394 78.84C61.754 79.2133 62.314 79.7307 62.7194 80.392C63.1247 81.0533 63.3274 81.8213 63.3274 82.696C63.3274 83.5493 63.1247 84.312 62.7194 84.984C62.314 85.6453 61.754 86.168 61.0394 86.552C60.3247 86.936 59.514 87.128 58.6074 87.128ZM58.6074 85.08C59.0234 85.08 59.3967 84.984 59.7274 84.792C60.058 84.6 60.3194 84.328 60.5114 83.976C60.7034 83.6133 60.7994 83.1867 60.7994 82.696C60.7994 82.1947 60.7034 81.768 60.5114 81.416C60.3194 81.064 60.058 80.792 59.7274 80.6C59.3967 80.408 59.0234 80.312 58.6074 80.312C58.1914 80.312 57.818 80.408 57.4874 80.6C57.1567 80.792 56.89 81.064 56.6874 81.416C56.4954 81.768 56.3994 82.1947 56.3994 82.696C56.3994 83.1867 56.4954 83.6133 56.6874 83.976C56.89 84.328 57.1567 84.6 57.4874 84.792C57.818 84.984 58.1914 85.08 58.6074 85.08ZM69.0438 90.232C68.2331 90.232 67.4491 90.1307 66.6918 89.928C65.9451 89.736 65.3211 89.4427 64.8198 89.048L65.8118 87.256C66.1744 87.5547 66.6331 87.7893 67.1878 87.96C67.7531 88.1413 68.3078 88.232 68.8518 88.232C69.7371 88.232 70.3771 88.0347 70.7718 87.64C71.1771 87.2453 71.3798 86.6587 71.3798 85.88V84.584L71.5398 82.424L71.5078 80.248V78.392H73.8758V85.56C73.8758 87.16 73.4598 88.3387 72.6278 89.096C71.7958 89.8533 70.6011 90.232 69.0438 90.232ZM68.6598 86.584C67.8598 86.584 67.1344 86.4133 66.4838 86.072C65.8438 85.72 65.3264 85.2347 64.9318 84.616C64.5478 83.9867 64.3558 83.256 64.3558 82.424C64.3558 81.5813 64.5478 80.8507 64.9318 80.232C65.3264 79.6027 65.8438 79.1173 66.4838 78.776C67.1344 78.4347 67.8598 78.264 68.6598 78.264C69.3851 78.264 70.0251 78.4133 70.5798 78.712C71.1344 79 71.5664 79.4533 71.8758 80.072C72.1851 80.68 72.3398 81.464 72.3398 82.424C72.3398 83.3733 72.1851 84.1573 71.8758 84.776C71.5664 85.384 71.1344 85.8373 70.5798 86.136C70.0251 86.4347 69.3851 86.584 68.6598 86.584ZM69.1558 84.536C69.5931 84.536 69.9824 84.4507 70.3238 84.28C70.6651 84.0987 70.9318 83.848 71.1238 83.528C71.3158 83.208 71.4118 82.84 71.4118 82.424C71.4118 81.9973 71.3158 81.6293 71.1238 81.32C70.9318 81 70.6651 80.7547 70.3238 80.584C69.9824 80.4027 69.5931 80.312 69.1558 80.312C68.7184 80.312 68.3291 80.4027 67.9878 80.584C67.6464 80.7547 67.3744 81 67.1718 81.32C66.9798 81.6293 66.8838 81.9973 66.8838 82.424C66.8838 82.84 66.9798 83.208 67.1718 83.528C67.3744 83.848 67.6464 84.0987 67.9878 84.28C68.3291 84.4507 68.7184 84.536 69.1558 84.536ZM80.2949 87.128C79.3775 87.128 78.5615 86.936 77.8469 86.552C77.1429 86.168 76.5829 85.6453 76.1669 84.984C75.7615 84.312 75.5589 83.5493 75.5589 82.696C75.5589 81.832 75.7615 81.0693 76.1669 80.408C76.5829 79.736 77.1429 79.2133 77.8469 78.84C78.5615 78.456 79.3775 78.264 80.2949 78.264C81.2015 78.264 82.0122 78.456 82.7269 78.84C83.4415 79.2133 84.0015 79.7307 84.4069 80.392C84.8122 81.0533 85.0149 81.8213 85.0149 82.696C85.0149 83.5493 84.8122 84.312 84.4069 84.984C84.0015 85.6453 83.4415 86.168 82.7269 86.552C82.0122 86.936 81.2015 87.128 80.2949 87.128ZM80.2949 85.08C80.7109 85.08 81.0842 84.984 81.4149 84.792C81.7455 84.6 82.0069 84.328 82.1989 83.976C82.3909 83.6133 82.4869 83.1867 82.4869 82.696C82.4869 82.1947 82.3909 81.768 82.1989 81.416C82.0069 81.064 81.7455 80.792 81.4149 80.6C81.0842 80.408 80.7109 80.312 80.2949 80.312C79.8789 80.312 79.5055 80.408 79.1749 80.6C78.8442 80.792 78.5775 81.064 78.3749 81.416C78.1829 81.768 78.0869 82.1947 78.0869 82.696C78.0869 83.1867 78.1829 83.6133 78.3749 83.976C78.5775 84.328 78.8442 84.6 79.1749 84.792C79.5055 84.984 79.8789 85.08 80.2949 85.08Z" fill="#7B7B7B"/>
<defs>
<clipPath id="clip0_502_3">
<rect width="70" height="70.7963" fill="white" transform="translate(9)"/>
</clipPath>
</defs>
</svg>
