<?xml version="1.0" encoding="iso-8859-1"?>
<!-- Generator: Adobe Illustrator 19.0.0, SVG Export Plug-In . SVG Version: 6.00 Build 0)  -->
<svg version="1.1" id="Layer_1" xmlns="http://www.w3.org/2000/svg" xmlns:xlink="http://www.w3.org/1999/xlink" x="0px" y="0px"
	 viewBox="0 0 512 512" style="enable-background:new 0 0 512 512;" xml:space="preserve">
<g>
	<g>
		<path d="M447.359,231.436c-6.069,0-10.995,4.926-10.995,10.995c0,6.08,4.926,10.995,10.995,10.995
			c6.069,0,10.995-4.915,10.995-10.995C458.355,236.362,453.429,231.436,447.359,231.436z"/>
	</g>
</g>
<g>
	<g>
		<path d="M424.962,209.039c-6.08,0-10.995,4.926-10.995,10.995c0,6.069,4.915,10.995,10.995,10.995
			c6.069,0,10.995-4.926,10.995-10.995C435.958,213.965,431.032,209.039,424.962,209.039z"/>
	</g>
</g>
<g>
	<g>
		<path d="M424.962,253.844c-6.08,0-10.995,4.926-10.995,10.995s4.915,10.995,10.995,10.995c6.069,0,10.995-4.926,10.995-10.995
			S431.032,253.844,424.962,253.844z"/>
	</g>
</g>
<g>
	<g>
		<path d="M402.554,231.436c-6.069,0-10.995,4.926-10.995,10.995c0,6.08,4.926,10.995,10.995,10.995
			c6.069,0,10.995-4.915,10.995-10.995C413.549,236.362,408.624,231.436,402.554,231.436z"/>
	</g>
</g>
<g>
	<g>
		<path d="M109.446,231.436c-6.069,0-10.995,4.926-10.995,10.995c0,6.08,4.926,10.995,10.995,10.995
			c6.069,0,10.995-4.915,10.995-10.995C120.441,236.362,115.515,231.436,109.446,231.436z"/>
	</g>
</g>
<g>
	<g>
		<path d="M87.038,209.039c-6.069,0-10.995,4.926-10.995,10.995c0,6.069,4.926,10.995,10.995,10.995
			c6.08,0,10.995-4.926,10.995-10.995C98.033,213.965,93.118,209.039,87.038,209.039z"/>
	</g>
</g>
<g>
	<g>
		<path d="M87.038,253.844c-6.069,0-10.995,4.926-10.995,10.995s4.926,10.995,10.995,10.995c6.08,0,10.995-4.926,10.995-10.995
			S93.118,253.844,87.038,253.844z"/>
	</g>
</g>
<g>
	<g>
		<path d="M64.64,231.436c-6.069,0-10.995,4.926-10.995,10.995c0,6.08,4.926,10.995,10.995,10.995
			c6.069,0,10.995-4.915,10.995-10.995C75.636,236.362,70.71,231.436,64.64,231.436z"/>
	</g>
</g>
<g>
	<g>
		<path d="M304.076,203.542h-3.299c-6.072,0-10.995,4.922-10.995,10.995s4.923,10.995,10.995,10.995h3.299
			c6.071,0,10.995-4.923,10.995-10.995S310.148,203.542,304.076,203.542z"/>
	</g>
</g>
<g>
	<g>
		<path d="M340.519,203.542h-6.894c-6.072,0-10.995,4.922-10.995,10.995s4.924,10.995,10.995,10.995h6.894
			c3.214,0,5.828,2.609,5.828,5.816v84.575c0,3.213-2.615,5.827-5.828,5.827H171.48c-3.213,0-5.827-2.614-5.827-5.827v-84.575
			c0-3.207,2.615-5.816,5.827-5.816h98.511c6.072,0,10.995-4.923,10.995-10.995s-4.924-10.995-10.995-10.995H171.48
			c-15.338,0-27.818,12.474-27.818,27.807v84.575c0,15.338,12.479,27.818,27.818,27.818h169.038
			c15.339,0,27.819-12.479,27.819-27.818v-84.575C368.337,216.016,355.858,203.542,340.519,203.542z"/>
	</g>
</g>
<g>
	<g>
		<path d="M87.038,288.391c-16.77,0-30.413,13.648-30.413,30.424s13.643,30.424,30.413,30.424c16.775,0,30.424-13.648,30.424-30.424
			S103.813,288.391,87.038,288.391z M87.038,327.248c-4.644,0-8.422-3.783-8.422-8.433s3.779-8.433,8.422-8.433
			c4.65,0,8.433,3.783,8.433,8.433S91.689,327.248,87.038,327.248z"/>
	</g>
</g>
<g>
	<g>
		<path d="M424.962,288.391c-16.775,0-30.424,13.648-30.424,30.424s13.648,30.424,30.424,30.424
			c16.77,0,30.413-13.648,30.413-30.424S441.732,288.391,424.962,288.391z M424.962,327.248c-4.65,0-8.433-3.783-8.433-8.433
			s3.782-8.433,8.433-8.433c4.644,0,8.422,3.783,8.422,8.433S429.607,327.248,424.962,327.248z"/>
	</g>
</g>
<g>
	<g>
		<path d="M477.676,175.834c-5.587-6.906-13.155-11.713-21.618-13.94c-1.824-8.702-6.12-16.699-12.551-23.13
			c-8.731-8.746-20.352-13.561-32.719-13.561h-28.994c-15.514,0-28.137,12.621-28.137,28.137v7.147H158.341v-7.147
			c0-15.514-12.621-28.137-28.137-28.137H101.21c-22.351,0-41.049,15.934-45.341,37.043c-7.778,2.309-14.764,6.828-20.057,13.164
			C12.718,203.087,0,238.221,0,274.339c0,35.252,12.188,69.738,34.328,97.116c7.903,9.75,19.736,15.343,32.468,15.343h377.265
			c12.488,0,24.197-5.442,32.127-14.935C499.282,344.184,512,309.053,512,272.944C512,237.679,499.811,203.193,477.676,175.834z
			 M375.648,153.338c0-3.389,2.758-6.146,6.146-6.146h28.994c6.486,0,12.58,2.525,17.162,7.115c1.841,1.841,3.349,3.924,4.496,6.178
			h-56.799V153.338z M101.21,147.191h28.994c3.389,0,6.146,2.758,6.146,6.146v7.147H79.565
			C83.583,152.602,91.776,147.191,101.21,147.191z M459.306,357.771c-3.735,4.472-9.292,7.037-15.245,7.037H66.796
			c-6.069,0-11.677-2.623-15.377-7.189c-18.978-23.468-29.429-53.044-29.429-83.279c0-30.979,10.905-61.11,30.705-84.84
			c3.728-4.465,9.284-7.026,15.244-7.026h79.407h217.308h80.552c6.075,0,11.68,2.621,15.377,7.191
			c18.978,23.457,29.429,53.033,29.429,83.278C490.01,303.914,479.104,334.041,459.306,357.771z"/>
	</g>
</g>
<g>
</g>
<g>
</g>
<g>
</g>
<g>
</g>
<g>
</g>
<g>
</g>
<g>
</g>
<g>
</g>
<g>
</g>
<g>
</g>
<g>
</g>
<g>
</g>
<g>
</g>
<g>
</g>
<g>
</g>
</svg>
